HIERARCHY
ROOT Hips
{
	OFFSET -0.001795 -0.223333 0.028219
	CHANNELS 6 Xposition Yposition Zposition Zrotation Yrotation Xrotation 
	JOINT LeftUpLeg
	{
		OFFSET 0.069520 -0.091406 -0.006815
		CHANNELS 3 Zrotation Yrotation Xrotation
		JOINT LeftLeg
		{
			OFFSET 0.034277 -0.375199 -0.004496
			CHANNELS 3 Zrotation Yrotation Xrotation
			JOINT LeftFoot
			{
				OFFSET -0.013596 -0.397961 -0.043693
				CHANNELS 3 Zrotation Yrotation Xrotation
				JOINT LeftToe
				{
					OFFSET 0.026358 -0.055791 0.119288
					CHANNELS 3 Zrotation Yrotation Xrotation
					End Site
					{
						OFFSET 0.000000 0.000000 0.000000
					}
				}
			}
		}
	}
	JOINT RightUpLeg
	{
		OFFSET -0.067670 -0.090522 -0.004320
		CHANNELS 3 Zrotation Yrotation Xrotation
		JOINT RightLeg
		{
			OFFSET -0.038290 -0.382569 -0.008850
			CHANNELS 3 Zrotation Yrotation Xrotation
			JOINT RightFoot
			{
				OFFSET 0.015774 -0.398415 -0.042312
				CHANNELS 3 Zrotation Yrotation Xrotation
				JOINT RightToe
				{
					OFFSET -0.025372 -0.048144 0.123348
					CHANNELS 3 Zrotation Yrotation Xrotation
					End Site
					{
						OFFSET 0.000000 0.000000 0.000000
					}
				}
			}
		}
	}
	JOINT Spine
	{
		OFFSET -0.002533 0.108963 -0.026696
		CHANNELS 3 Zrotation Yrotation Xrotation
		JOINT Spine1
		{
			OFFSET 0.005487 0.135180 0.001092
			CHANNELS 3 Zrotation Yrotation Xrotation
			JOINT Spine2
			{
				OFFSET 0.001457 0.052922 0.025425
				CHANNELS 3 Zrotation Yrotation Xrotation
				JOINT Neck
				{
					OFFSET -0.002778 0.213870 -0.042857
					CHANNELS 3 Zrotation Yrotation Xrotation
					JOINT Head
					{
						OFFSET 0.005152 0.064970 0.051349
						CHANNELS 3 Zrotation Yrotation Xrotation
						End Site
						{
							OFFSET 0.000000 0.000000 0.000000
						}
					}
				}
				JOINT LeftShoulder
				{
					OFFSET 0.078845 0.121749 -0.034090
					CHANNELS 3 Zrotation Yrotation Xrotation
					JOINT LeftArm
					{
						OFFSET 0.090977 0.030469 -0.008868
						CHANNELS 3 Zrotation Yrotation Xrotation
						JOINT LeftForeArm
						{
							OFFSET 0.259612 -0.012772 -0.027456
							CHANNELS 3 Zrotation Yrotation Xrotation
							JOINT LeftHand
							{
								OFFSET 0.249234 0.008986 -0.001171
								CHANNELS 3 Zrotation Yrotation Xrotation
								End Site
								{
									OFFSET 0.000000 0.000000 0.000000
								}
							}
						}
					}
				}
				JOINT RightShoulder
				{
					OFFSET -0.081759 0.118833 -0.038615
					CHANNELS 3 Zrotation Yrotation Xrotation
					JOINT RightArm
					{
						OFFSET -0.096012 0.032551 -0.009143
						CHANNELS 3 Zrotation Yrotation Xrotation
						JOINT RightForeArm
						{
							OFFSET -0.253742 -0.013329 -0.021401
							CHANNELS 3 Zrotation Yrotation Xrotation
							JOINT RightHand
							{
								OFFSET -0.255298 0.007772 -0.005559
								CHANNELS 3 Zrotation Yrotation Xrotation
								End Site
								{
									OFFSET 0.000000 0.000000 0.000000
								}
							}
						}
					}
				}
			}
		}
	}
}
MOTION
Frames: 6
Frame Time: 0.050000
0.000000 0.948000 0.000000 0.270031 -4.638037 1.741976 3.358158 0.049566 1.113401 0.025432 0.259288 -7.300200 -5.361615 -5.649175 10.577736 0.000000 0.000000 0.000000 -2.064361 0.099572 -0.306825 -0.457430 0.002623 -0.938933 -3.377438 -11.452148 10.235197 0.000000 0.000000 0.000000 4.584910 -0.010992 -0.588219 -3.523530 1.659461 -1.162889 -3.350666 5.057824 5.325319 4.967125 -1.847436 -13.824009 0.000000 0.000000 0.000000 -21.735958 -7.187592 0.996490 -49.487188 -6.906236 -2.923591 -6.114258 -20.418415 1.757258 0.000000 0.000000 0.000000 19.818312 0.329794 -0.814439 59.035884 5.714193 -3.099551 5.512641 24.793914 2.126161 0.000000 0.000000 0.000000 
0.000183 0.947369 0.000444 0.122090 -5.017228 2.077930 3.694154 0.091698 1.852663 -0.354150 0.347305 -9.077194 -5.321222 -5.408545 11.024579 0.000000 0.000000 0.000000 -1.962755 0.132140 -0.728529 -0.434806 0.003665 -0.860415 -3.248422 -11.192255 10.028950 0.000000 0.000000 0.000000 5.369344 0.015688 -0.987680 -3.776033 1.788819 -0.729525 -4.411686 5.665249 4.713642 5.064181 -1.659971 -15.040779 0.000000 0.000000 0.000000 -22.051255 -7.369559 0.838846 -48.921702 -7.081723 -2.692492 -6.121205 -20.098348 1.701486 0.000000 0.000000 0.000000 19.721344 -0.489930 -1.108581 60.391784 4.946202 -3.474326 5.221373 25.290386 2.152382 0.000000 0.000000 0.000000 
0.000379 0.947225 0.000639 0.420077 -4.965555 2.089883 3.449446 0.061362 1.320366 -0.516874 0.321731 -8.203616 -5.271665 -5.447914 10.755690 0.000000 0.000000 0.000000 -2.226980 0.156486 -0.929779 -0.561523 0.029707 -0.530698 -3.332900 -11.304824 9.844386 0.000000 0.000000 0.000000 5.374472 0.011784 -0.946965 -3.688055 1.709327 -2.063213 -4.875126 5.559981 5.537377 4.648167 -1.481462 -14.584739 0.000000 0.000000 0.000000 -21.407793 -7.491248 1.016729 -49.388992 -7.152579 -2.797190 -5.564178 -18.772057 1.508678 0.000000 0.000000 0.000000 20.773466 0.046219 -0.850721 59.359817 4.362610 -3.852599 5.245903 25.429131 2.175087 0.000000 0.000000 0.000000 
0.000482 0.947087 0.000936 0.603235 -4.845172 2.079007 3.570586 0.080700 1.661728 -1.095476 0.367409 -8.814659 -5.441810 -5.575504 11.073830 0.000000 0.000000 0.000000 -2.445342 0.147835 -0.730066 -0.527910 0.013499 -0.827915 -3.387022 -11.391728 9.830522 0.000000 0.000000 0.000000 5.262280 0.041278 -1.274512 -3.692390 1.737941 -1.141286 -4.968941 5.144011 4.813570 3.899331 -1.101826 -14.004088 0.000000 0.000000 0.000000 -21.721291 -7.146059 0.850812 -49.188006 -7.427768 -2.616240 -5.099292 -18.594639 1.422216 0.000000 0.000000 0.000000 20.392926 -0.025100 -0.972328 59.344425 3.933925 -3.965170 5.348314 25.893963 2.218199 0.000000 0.000000 0.000000 
0.000584 0.947489 0.001214 0.769616 -4.854030 1.831050 3.086497 0.105659 1.848679 -0.576793 0.340527 -8.660404 -5.438475 -5.566785 11.086074 0.000000 0.000000 0.000000 -2.610771 0.142534 -0.601159 -0.575222 0.029397 -0.569138 -3.384956 -11.389406 9.831411 0.000000 0.000000 0.000000 5.167287 0.036883 -1.175845 -3.736952 1.759628 -1.143371 -4.987957 5.083990 4.842357 3.423941 -0.873479 -13.460451 0.000000 0.000000 0.000000 -21.802267 -7.139768 0.862927 -48.828503 -7.497327 -2.578146 -5.364140 -18.419061 1.453087 0.000000 0.000000 0.000000 20.327765 -0.426384 -1.212806 59.015176 3.547165 -4.140141 5.705246 26.140629 2.317678 0.000000 0.000000 0.000000 
0.000662 0.947785 0.001536 0.887422 -4.461426 1.756844 3.055322 0.114504 1.999556 -0.725888 0.352129 -8.868820 -5.699141 -5.850800 11.330346 0.000000 0.000000 0.000000 -2.722920 0.133156 -0.452760 -0.553636 0.028063 -0.565114 -3.549818 -11.695632 9.950405 0.000000 0.000000 0.000000 5.144429 0.051120 -1.333706 -3.671739 1.732600 -1.055644 -5.060344 4.758243 4.955232 2.743161 -0.441867 -13.526836 0.000000 0.000000 0.000000 -22.241786 -6.915069 0.737887 -48.463279 -7.579230 -2.534198 -5.434414 -18.583685 1.480961 0.000000 0.000000 0.000000 20.218667 -0.502736 -1.273339 59.066091 3.216307 -4.311693 5.273818 26.012780 2.208678 0.000000 0.000000 0.000000 
